<?xml version="1.0" standalone="no"?>
<!DOCTYPE svg PUBLIC "-//W3C//DTD SVG 20010904//EN"
 "http://www.w3.org/TR/2001/REC-SVG-20010904/DTD/svg10.dtd">
<svg version="1.0" xmlns="http://www.w3.org/2000/svg"
 width="360.000000pt" height="360.000000pt" viewBox="0 0 360.000000 360.000000"
 preserveAspectRatio="xMidYMid meet">
<metadata>
Created by potrace 1.14, written by Peter Selinger 2001-2017
</metadata>
<g transform="translate(0.000000,360.000000) scale(0.100000,-0.100000)"
fill="#000000" stroke="none">
<path d="M2080 2160 c0 -407 -1 -740 -2 -740 -2 0 -25 7 -52 15 -61 19 -204
19 -271 1 -244 -65 -395 -283 -326 -467 55 -145 200 -229 396 -229 189 0 354
92 436 242 l34 63 3 623 c3 707 -8 638 95 603 102 -36 180 -101 219 -186 19
-41 23 -67 23 -142 0 -50 3 -94 6 -98 11 -11 71 68 103 135 25 52 32 81 34
147 7 140 -40 218 -268 445 -139 138 -190 216 -190 290 l0 38 -120 0 -120 0 0
-740z"/>
<path d="M900 2470 l0 -90 440 0 440 0 0 90 0 90 -440 0 -440 0 0 -90z"/>
<path d="M900 2130 l0 -90 440 0 440 0 0 90 0 90 -440 0 -440 0 0 -90z"/>
<path d="M900 1790 l0 -90 440 0 440 0 0 90 0 90 -440 0 -440 0 0 -90z"/>
<path d="M740 955 l0 -45 40 0 40 0 0 45 0 45 -40 0 -40 0 0 -45z"/>
<path d="M2860 955 l0 -45 40 0 40 0 0 45 0 45 -40 0 -40 0 0 -45z"/>
<path d="M740 790 l0 -40 40 0 40 0 0 40 0 40 -40 0 -40 0 0 -40z"/>
<path d="M2860 790 l0 -40 40 0 40 0 0 40 0 40 -40 0 -40 0 0 -40z"/>
</g>
</svg>
